<?xml version="1.0" encoding="utf-8"?>
<!-- Generator: Adobe Illustrator 23.0.5, SVG Export Plug-In . SVG Version: 6.00 Build 0)  -->
<svg version="1.1" xmlns="http://www.w3.org/2000/svg" xmlns:xlink="http://www.w3.org/1999/xlink" x="0px" y="0px"
	 viewBox="0 0 384 384" style="enable-background:new 0 0 384 384;" xml:space="preserve">
<style type="text/css">
	.st0{display:none;fill:url(#SVGID_1_);}
	.st1{fill:#FFFFFF;}
	.st2{fill:none;stroke:#FFFFFF;stroke-miterlimit:10;}
</style>
<g id="base">
</g>
<g id="fotos">
</g>
<g id="info">
	<path class="st1" d="M192.4,119.7c-44.9,0-89.8,0-134.8,0c-12.1,0-21.4-7.1-24.3-18.3c-3.6-14.3,7-28.8,21.8-29.6c1-0.1,2,0,3,0
		c89.5,0,178.9,0,268.4,0c12,0,21.1,6.3,24.4,16.7c4.8,15.3-6.3,31-22.3,31.2c-16.2,0.2-32.4,0.1-48.7,0.1
		C250.8,119.7,221.6,119.7,192.4,119.7z"/>
	<path class="st1" d="M170.1,167.6c37.4,0,74.8,0,112.3,0c12.4,0,21.9,7.9,24.1,19.8c2.6,13.9-7.9,27.3-22.1,28.1c-0.5,0-1,0-1.5,0
		c-75.3,0-150.7,0-226,0c-10.9,0-20-6.8-23.1-16.9c-4.7-15.3,6.5-30.8,22.6-31c17.6-0.2,35.2-0.1,52.8-0.1
		C129.4,167.6,149.8,167.6,170.1,167.6z"/>
	<path class="st1" d="M124.2,311.4c-22.6,0-45.2,0.1-67.7-0.1c-9.5-0.1-16.8-4.6-21.1-13.1c-4.3-8.5-3.6-17,1.9-24.7
		c4.5-6.4,10.9-9.9,18.8-9.9c45.7-0.1,91.3-0.1,137,0c13,0,23.4,10.9,23.4,23.9c0,13.1-10.4,23.8-23.7,23.9
		C169.8,311.5,147,311.4,124.2,311.4z"/>
</g>
</svg>
